<mxfile host="app.diagrams.net" modified="2024-04-04T09:30:39.063Z" agent="Mozilla/5.0 (Windows NT 10.0; Win64; x64) AppleWebKit/537.36 (KHTML, like Gecko) Chrome/123.0.0.0 Safari/537.36" etag="a4fN4Rxrk7znxv9j1c5U" version="24.2.2" type="github">
  <diagram name="Page-1" id="wc3nIUI5abEkZBBYtZqE">
    <mxGraphModel dx="1730" dy="1560" grid="1" gridSize="10" guides="1" tooltips="1" connect="1" arrows="1" fold="1" page="1" pageScale="1" pageWidth="850" pageHeight="1100" math="0" shadow="0">
      <root>
        <mxCell id="0" />
        <mxCell id="1" parent="0" />
        <mxCell id="xO5s7-Jt3tzT8x8iTR57-20" style="edgeStyle=orthogonalEdgeStyle;rounded=0;orthogonalLoop=1;jettySize=auto;html=1;exitX=0;exitY=0.5;exitDx=0;exitDy=0;entryX=1;entryY=0.5;entryDx=0;entryDy=0;" edge="1" parent="1" source="xO5s7-Jt3tzT8x8iTR57-1" target="xO5s7-Jt3tzT8x8iTR57-7">
          <mxGeometry relative="1" as="geometry" />
        </mxCell>
        <mxCell id="xO5s7-Jt3tzT8x8iTR57-1" value="DIMILIKI" style="rhombus;whiteSpace=wrap;html=1;" vertex="1" parent="1">
          <mxGeometry x="420" y="160" width="80" height="80" as="geometry" />
        </mxCell>
        <mxCell id="xO5s7-Jt3tzT8x8iTR57-24" style="edgeStyle=orthogonalEdgeStyle;rounded=0;orthogonalLoop=1;jettySize=auto;html=1;exitX=0.5;exitY=1;exitDx=0;exitDy=0;" edge="1" parent="1" source="xO5s7-Jt3tzT8x8iTR57-2" target="xO5s7-Jt3tzT8x8iTR57-22">
          <mxGeometry relative="1" as="geometry" />
        </mxCell>
        <mxCell id="xO5s7-Jt3tzT8x8iTR57-2" value="MELAKUKAN" style="rhombus;whiteSpace=wrap;html=1;" vertex="1" parent="1">
          <mxGeometry x="50" y="160" width="80" height="80" as="geometry" />
        </mxCell>
        <mxCell id="xO5s7-Jt3tzT8x8iTR57-3" value="" style="rhombus;whiteSpace=wrap;html=1;" vertex="1" parent="1">
          <mxGeometry x="670" y="460" width="80" height="80" as="geometry" />
        </mxCell>
        <mxCell id="xO5s7-Jt3tzT8x8iTR57-16" style="edgeStyle=orthogonalEdgeStyle;rounded=0;orthogonalLoop=1;jettySize=auto;html=1;exitX=0.5;exitY=1;exitDx=0;exitDy=0;" edge="1" parent="1" source="xO5s7-Jt3tzT8x8iTR57-4" target="xO5s7-Jt3tzT8x8iTR57-8">
          <mxGeometry relative="1" as="geometry" />
        </mxCell>
        <mxCell id="xO5s7-Jt3tzT8x8iTR57-4" value="MEMILIKI" style="rhombus;whiteSpace=wrap;html=1;" vertex="1" parent="1">
          <mxGeometry x="610" y="10" width="80" height="80" as="geometry" />
        </mxCell>
        <mxCell id="xO5s7-Jt3tzT8x8iTR57-14" style="edgeStyle=orthogonalEdgeStyle;rounded=0;orthogonalLoop=1;jettySize=auto;html=1;exitX=1;exitY=0.5;exitDx=0;exitDy=0;entryX=0;entryY=0.5;entryDx=0;entryDy=0;" edge="1" parent="1" source="xO5s7-Jt3tzT8x8iTR57-5" target="xO5s7-Jt3tzT8x8iTR57-10">
          <mxGeometry relative="1" as="geometry" />
        </mxCell>
        <mxCell id="xO5s7-Jt3tzT8x8iTR57-5" value="MELAKUKAN" style="rhombus;whiteSpace=wrap;html=1;" vertex="1" parent="1">
          <mxGeometry x="210" y="10" width="80" height="80" as="geometry" />
        </mxCell>
        <mxCell id="xO5s7-Jt3tzT8x8iTR57-13" style="edgeStyle=orthogonalEdgeStyle;rounded=0;orthogonalLoop=1;jettySize=auto;html=1;exitX=1;exitY=0.5;exitDx=0;exitDy=0;entryX=0;entryY=0.5;entryDx=0;entryDy=0;" edge="1" parent="1" source="xO5s7-Jt3tzT8x8iTR57-6" target="xO5s7-Jt3tzT8x8iTR57-5">
          <mxGeometry relative="1" as="geometry" />
        </mxCell>
        <mxCell id="xO5s7-Jt3tzT8x8iTR57-6" value="PASIEN" style="rounded=0;whiteSpace=wrap;html=1;" vertex="1" parent="1">
          <mxGeometry y="20" width="120" height="60" as="geometry" />
        </mxCell>
        <mxCell id="xO5s7-Jt3tzT8x8iTR57-21" style="edgeStyle=orthogonalEdgeStyle;rounded=0;orthogonalLoop=1;jettySize=auto;html=1;exitX=0;exitY=0.5;exitDx=0;exitDy=0;entryX=1;entryY=0.5;entryDx=0;entryDy=0;" edge="1" parent="1" source="xO5s7-Jt3tzT8x8iTR57-7" target="xO5s7-Jt3tzT8x8iTR57-2">
          <mxGeometry relative="1" as="geometry" />
        </mxCell>
        <mxCell id="xO5s7-Jt3tzT8x8iTR57-7" value="DOKTER" style="rounded=0;whiteSpace=wrap;html=1;" vertex="1" parent="1">
          <mxGeometry x="220" y="170" width="120" height="60" as="geometry" />
        </mxCell>
        <mxCell id="xO5s7-Jt3tzT8x8iTR57-18" style="edgeStyle=orthogonalEdgeStyle;rounded=0;orthogonalLoop=1;jettySize=auto;html=1;exitX=0;exitY=0.5;exitDx=0;exitDy=0;entryX=1;entryY=0.5;entryDx=0;entryDy=0;" edge="1" parent="1" source="xO5s7-Jt3tzT8x8iTR57-8" target="xO5s7-Jt3tzT8x8iTR57-1">
          <mxGeometry relative="1" as="geometry" />
        </mxCell>
        <mxCell id="xO5s7-Jt3tzT8x8iTR57-8" value="CATATAN_MEDIS" style="rounded=0;whiteSpace=wrap;html=1;" vertex="1" parent="1">
          <mxGeometry x="590" y="170" width="120" height="60" as="geometry" />
        </mxCell>
        <mxCell id="xO5s7-Jt3tzT8x8iTR57-19" style="edgeStyle=orthogonalEdgeStyle;rounded=0;orthogonalLoop=1;jettySize=auto;html=1;exitX=0.5;exitY=0;exitDx=0;exitDy=0;entryX=0.5;entryY=1;entryDx=0;entryDy=0;" edge="1" parent="1" source="xO5s7-Jt3tzT8x8iTR57-9" target="xO5s7-Jt3tzT8x8iTR57-1">
          <mxGeometry relative="1" as="geometry" />
        </mxCell>
        <mxCell id="xO5s7-Jt3tzT8x8iTR57-9" value="SPESIALIS" style="rounded=0;whiteSpace=wrap;html=1;" vertex="1" parent="1">
          <mxGeometry x="400" y="300" width="120" height="60" as="geometry" />
        </mxCell>
        <mxCell id="xO5s7-Jt3tzT8x8iTR57-15" style="edgeStyle=orthogonalEdgeStyle;rounded=0;orthogonalLoop=1;jettySize=auto;html=1;exitX=1;exitY=0.5;exitDx=0;exitDy=0;entryX=0;entryY=0.5;entryDx=0;entryDy=0;" edge="1" parent="1" source="xO5s7-Jt3tzT8x8iTR57-10" target="xO5s7-Jt3tzT8x8iTR57-4">
          <mxGeometry relative="1" as="geometry">
            <mxPoint x="600" y="50" as="targetPoint" />
          </mxGeometry>
        </mxCell>
        <mxCell id="xO5s7-Jt3tzT8x8iTR57-10" value="PENDAFTARAN" style="rounded=0;whiteSpace=wrap;html=1;" vertex="1" parent="1">
          <mxGeometry x="390" y="20" width="120" height="60" as="geometry" />
        </mxCell>
        <mxCell id="xO5s7-Jt3tzT8x8iTR57-25" style="edgeStyle=orthogonalEdgeStyle;rounded=0;orthogonalLoop=1;jettySize=auto;html=1;exitX=0.5;exitY=1;exitDx=0;exitDy=0;entryX=0.5;entryY=0;entryDx=0;entryDy=0;" edge="1" parent="1" source="xO5s7-Jt3tzT8x8iTR57-22" target="xO5s7-Jt3tzT8x8iTR57-23">
          <mxGeometry relative="1" as="geometry" />
        </mxCell>
        <mxCell id="xO5s7-Jt3tzT8x8iTR57-22" value="PEMERIKSAAN" style="rounded=0;whiteSpace=wrap;html=1;" vertex="1" parent="1">
          <mxGeometry x="30" y="300" width="120" height="60" as="geometry" />
        </mxCell>
        <mxCell id="xO5s7-Jt3tzT8x8iTR57-27" style="edgeStyle=orthogonalEdgeStyle;rounded=0;orthogonalLoop=1;jettySize=auto;html=1;exitX=1;exitY=0.5;exitDx=0;exitDy=0;entryX=0;entryY=0.5;entryDx=0;entryDy=0;" edge="1" parent="1" source="xO5s7-Jt3tzT8x8iTR57-23" target="xO5s7-Jt3tzT8x8iTR57-26">
          <mxGeometry relative="1" as="geometry" />
        </mxCell>
        <mxCell id="xO5s7-Jt3tzT8x8iTR57-29" style="edgeStyle=orthogonalEdgeStyle;rounded=0;orthogonalLoop=1;jettySize=auto;html=1;exitX=0.5;exitY=1;exitDx=0;exitDy=0;entryX=0.5;entryY=0;entryDx=0;entryDy=0;" edge="1" parent="1" source="xO5s7-Jt3tzT8x8iTR57-23" target="xO5s7-Jt3tzT8x8iTR57-28">
          <mxGeometry relative="1" as="geometry" />
        </mxCell>
        <mxCell id="xO5s7-Jt3tzT8x8iTR57-23" value="MEMPUNYAI" style="rhombus;whiteSpace=wrap;html=1;" vertex="1" parent="1">
          <mxGeometry x="50" y="420" width="80" height="80" as="geometry" />
        </mxCell>
        <mxCell id="xO5s7-Jt3tzT8x8iTR57-26" value="RESEP" style="rounded=0;whiteSpace=wrap;html=1;" vertex="1" parent="1">
          <mxGeometry x="200" y="430" width="120" height="60" as="geometry" />
        </mxCell>
        <mxCell id="xO5s7-Jt3tzT8x8iTR57-31" style="edgeStyle=orthogonalEdgeStyle;rounded=0;orthogonalLoop=1;jettySize=auto;html=1;exitX=1;exitY=0.5;exitDx=0;exitDy=0;" edge="1" parent="1" source="xO5s7-Jt3tzT8x8iTR57-28" target="xO5s7-Jt3tzT8x8iTR57-30">
          <mxGeometry relative="1" as="geometry" />
        </mxCell>
        <mxCell id="xO5s7-Jt3tzT8x8iTR57-28" value="OBAT" style="rounded=0;whiteSpace=wrap;html=1;" vertex="1" parent="1">
          <mxGeometry x="30" y="580" width="120" height="60" as="geometry" />
        </mxCell>
        <mxCell id="xO5s7-Jt3tzT8x8iTR57-33" style="edgeStyle=orthogonalEdgeStyle;rounded=0;orthogonalLoop=1;jettySize=auto;html=1;exitX=1;exitY=0.5;exitDx=0;exitDy=0;entryX=0;entryY=0.5;entryDx=0;entryDy=0;" edge="1" parent="1" source="xO5s7-Jt3tzT8x8iTR57-30" target="xO5s7-Jt3tzT8x8iTR57-32">
          <mxGeometry relative="1" as="geometry" />
        </mxCell>
        <mxCell id="xO5s7-Jt3tzT8x8iTR57-30" value="HARUS" style="rhombus;whiteSpace=wrap;html=1;" vertex="1" parent="1">
          <mxGeometry x="250" y="570" width="80" height="80" as="geometry" />
        </mxCell>
        <mxCell id="xO5s7-Jt3tzT8x8iTR57-36" style="edgeStyle=orthogonalEdgeStyle;rounded=0;orthogonalLoop=1;jettySize=auto;html=1;exitX=1;exitY=0.5;exitDx=0;exitDy=0;" edge="1" parent="1" source="xO5s7-Jt3tzT8x8iTR57-32" target="xO5s7-Jt3tzT8x8iTR57-34">
          <mxGeometry relative="1" as="geometry" />
        </mxCell>
        <mxCell id="xO5s7-Jt3tzT8x8iTR57-32" value="BAYAR" style="rounded=0;whiteSpace=wrap;html=1;" vertex="1" parent="1">
          <mxGeometry x="430" y="580" width="120" height="60" as="geometry" />
        </mxCell>
        <mxCell id="xO5s7-Jt3tzT8x8iTR57-34" value="ID_BAYAR" style="ellipse;whiteSpace=wrap;html=1;" vertex="1" parent="1">
          <mxGeometry x="560" y="650" width="120" height="80" as="geometry" />
        </mxCell>
        <mxCell id="xO5s7-Jt3tzT8x8iTR57-43" style="edgeStyle=orthogonalEdgeStyle;rounded=0;orthogonalLoop=1;jettySize=auto;html=1;exitX=0.5;exitY=1;exitDx=0;exitDy=0;" edge="1" parent="1" source="xO5s7-Jt3tzT8x8iTR57-37" target="xO5s7-Jt3tzT8x8iTR57-6">
          <mxGeometry relative="1" as="geometry" />
        </mxCell>
        <mxCell id="xO5s7-Jt3tzT8x8iTR57-37" value="NAMA" style="ellipse;whiteSpace=wrap;html=1;" vertex="1" parent="1">
          <mxGeometry y="-90" width="70" height="60" as="geometry" />
        </mxCell>
        <mxCell id="xO5s7-Jt3tzT8x8iTR57-56" style="edgeStyle=orthogonalEdgeStyle;rounded=0;orthogonalLoop=1;jettySize=auto;html=1;exitX=0.5;exitY=1;exitDx=0;exitDy=0;entryX=0.5;entryY=0;entryDx=0;entryDy=0;" edge="1" parent="1" source="xO5s7-Jt3tzT8x8iTR57-38" target="xO5s7-Jt3tzT8x8iTR57-10">
          <mxGeometry relative="1" as="geometry" />
        </mxCell>
        <mxCell id="xO5s7-Jt3tzT8x8iTR57-38" value="ID_PASIEN" style="ellipse;whiteSpace=wrap;html=1;" vertex="1" parent="1">
          <mxGeometry x="420" y="-120" width="70" height="50" as="geometry" />
        </mxCell>
        <mxCell id="xO5s7-Jt3tzT8x8iTR57-59" style="edgeStyle=orthogonalEdgeStyle;rounded=0;orthogonalLoop=1;jettySize=auto;html=1;exitX=0.5;exitY=0;exitDx=0;exitDy=0;" edge="1" parent="1" source="xO5s7-Jt3tzT8x8iTR57-39" target="xO5s7-Jt3tzT8x8iTR57-8">
          <mxGeometry relative="1" as="geometry">
            <Array as="points">
              <mxPoint x="650" y="250" />
            </Array>
          </mxGeometry>
        </mxCell>
        <mxCell id="xO5s7-Jt3tzT8x8iTR57-39" value="ID_PENDAFTARAN" style="ellipse;whiteSpace=wrap;html=1;" vertex="1" parent="1">
          <mxGeometry x="690" y="250" width="120" height="60" as="geometry" />
        </mxCell>
        <mxCell id="xO5s7-Jt3tzT8x8iTR57-40" value="ID_PASIEN" style="ellipse;whiteSpace=wrap;html=1;" vertex="1" parent="1">
          <mxGeometry x="-70" y="-60" width="70" height="60" as="geometry" />
        </mxCell>
        <mxCell id="xO5s7-Jt3tzT8x8iTR57-41" value="ALAMAT" style="ellipse;whiteSpace=wrap;html=1;" vertex="1" parent="1">
          <mxGeometry x="80" y="-90" width="70" height="60" as="geometry" />
        </mxCell>
        <mxCell id="xO5s7-Jt3tzT8x8iTR57-42" style="edgeStyle=orthogonalEdgeStyle;rounded=0;orthogonalLoop=1;jettySize=auto;html=1;exitX=0.5;exitY=1;exitDx=0;exitDy=0;entryX=0.808;entryY=0.033;entryDx=0;entryDy=0;entryPerimeter=0;" edge="1" parent="1" source="xO5s7-Jt3tzT8x8iTR57-41" target="xO5s7-Jt3tzT8x8iTR57-6">
          <mxGeometry relative="1" as="geometry" />
        </mxCell>
        <mxCell id="xO5s7-Jt3tzT8x8iTR57-44" style="edgeStyle=orthogonalEdgeStyle;rounded=0;orthogonalLoop=1;jettySize=auto;html=1;exitX=1;exitY=1;exitDx=0;exitDy=0;entryX=0.117;entryY=0;entryDx=0;entryDy=0;entryPerimeter=0;" edge="1" parent="1" source="xO5s7-Jt3tzT8x8iTR57-40" target="xO5s7-Jt3tzT8x8iTR57-6">
          <mxGeometry relative="1" as="geometry" />
        </mxCell>
        <mxCell id="xO5s7-Jt3tzT8x8iTR57-58" style="edgeStyle=orthogonalEdgeStyle;rounded=0;orthogonalLoop=1;jettySize=auto;html=1;exitX=0;exitY=0.5;exitDx=0;exitDy=0;" edge="1" parent="1" source="xO5s7-Jt3tzT8x8iTR57-45" target="xO5s7-Jt3tzT8x8iTR57-8">
          <mxGeometry relative="1" as="geometry" />
        </mxCell>
        <mxCell id="xO5s7-Jt3tzT8x8iTR57-45" value="ID_CATATAN" style="ellipse;whiteSpace=wrap;html=1;" vertex="1" parent="1">
          <mxGeometry x="770" y="180" width="70" height="60" as="geometry" />
        </mxCell>
        <mxCell id="xO5s7-Jt3tzT8x8iTR57-55" style="edgeStyle=orthogonalEdgeStyle;rounded=0;orthogonalLoop=1;jettySize=auto;html=1;exitX=1;exitY=1;exitDx=0;exitDy=0;entryX=0.25;entryY=0;entryDx=0;entryDy=0;" edge="1" parent="1" source="xO5s7-Jt3tzT8x8iTR57-46" target="xO5s7-Jt3tzT8x8iTR57-10">
          <mxGeometry relative="1" as="geometry" />
        </mxCell>
        <mxCell id="xO5s7-Jt3tzT8x8iTR57-46" value="ID_PENDAFTARAN" style="ellipse;whiteSpace=wrap;html=1;" vertex="1" parent="1">
          <mxGeometry x="310" y="-60" width="120" height="50" as="geometry" />
        </mxCell>
        <mxCell id="xO5s7-Jt3tzT8x8iTR57-52" style="edgeStyle=orthogonalEdgeStyle;rounded=0;orthogonalLoop=1;jettySize=auto;html=1;exitX=1;exitY=0.5;exitDx=0;exitDy=0;entryX=0;entryY=0.5;entryDx=0;entryDy=0;" edge="1" parent="1" source="xO5s7-Jt3tzT8x8iTR57-47" target="xO5s7-Jt3tzT8x8iTR57-6">
          <mxGeometry relative="1" as="geometry" />
        </mxCell>
        <mxCell id="xO5s7-Jt3tzT8x8iTR57-47" value="NO_TELP" style="ellipse;whiteSpace=wrap;html=1;" vertex="1" parent="1">
          <mxGeometry x="-90" y="20" width="70" height="60" as="geometry" />
        </mxCell>
        <mxCell id="xO5s7-Jt3tzT8x8iTR57-53" style="edgeStyle=orthogonalEdgeStyle;rounded=0;orthogonalLoop=1;jettySize=auto;html=1;exitX=1;exitY=0;exitDx=0;exitDy=0;entryX=0.25;entryY=1;entryDx=0;entryDy=0;" edge="1" parent="1" source="xO5s7-Jt3tzT8x8iTR57-48" target="xO5s7-Jt3tzT8x8iTR57-6">
          <mxGeometry relative="1" as="geometry" />
        </mxCell>
        <mxCell id="xO5s7-Jt3tzT8x8iTR57-48" value="TGL_LAHIR" style="ellipse;whiteSpace=wrap;html=1;" vertex="1" parent="1">
          <mxGeometry x="-50" y="100" width="70" height="60" as="geometry" />
        </mxCell>
        <mxCell id="xO5s7-Jt3tzT8x8iTR57-60" style="edgeStyle=orthogonalEdgeStyle;rounded=0;orthogonalLoop=1;jettySize=auto;html=1;exitX=0.5;exitY=0;exitDx=0;exitDy=0;entryX=0.25;entryY=1;entryDx=0;entryDy=0;" edge="1" parent="1" source="xO5s7-Jt3tzT8x8iTR57-49" target="xO5s7-Jt3tzT8x8iTR57-8">
          <mxGeometry relative="1" as="geometry" />
        </mxCell>
        <mxCell id="xO5s7-Jt3tzT8x8iTR57-49" value="ID_DOKTER" style="ellipse;whiteSpace=wrap;html=1;" vertex="1" parent="1">
          <mxGeometry x="580" y="260" width="80" height="60" as="geometry" />
        </mxCell>
        <mxCell id="xO5s7-Jt3tzT8x8iTR57-54" style="edgeStyle=orthogonalEdgeStyle;rounded=0;orthogonalLoop=1;jettySize=auto;html=1;exitX=0;exitY=1;exitDx=0;exitDy=0;entryX=0.75;entryY=0;entryDx=0;entryDy=0;" edge="1" parent="1" source="xO5s7-Jt3tzT8x8iTR57-50" target="xO5s7-Jt3tzT8x8iTR57-10">
          <mxGeometry relative="1" as="geometry" />
        </mxCell>
        <mxCell id="xO5s7-Jt3tzT8x8iTR57-50" value="TGL_PENDAFTARAN" style="ellipse;whiteSpace=wrap;html=1;" vertex="1" parent="1">
          <mxGeometry x="480" y="-60" width="130" height="50" as="geometry" />
        </mxCell>
        <mxCell id="xO5s7-Jt3tzT8x8iTR57-51" value="ID_PASIEN" style="ellipse;whiteSpace=wrap;html=1;" vertex="1" parent="1">
          <mxGeometry x="720" y="110" width="70" height="60" as="geometry" />
        </mxCell>
        <mxCell id="xO5s7-Jt3tzT8x8iTR57-57" style="edgeStyle=orthogonalEdgeStyle;rounded=0;orthogonalLoop=1;jettySize=auto;html=1;exitX=0;exitY=1;exitDx=0;exitDy=0;entryX=0.883;entryY=-0.033;entryDx=0;entryDy=0;entryPerimeter=0;" edge="1" parent="1" source="xO5s7-Jt3tzT8x8iTR57-51" target="xO5s7-Jt3tzT8x8iTR57-8">
          <mxGeometry relative="1" as="geometry" />
        </mxCell>
        <mxCell id="xO5s7-Jt3tzT8x8iTR57-61" value="" style="ellipse;whiteSpace=wrap;html=1;" vertex="1" parent="1">
          <mxGeometry x="-10" y="190" width="70" height="60" as="geometry" />
        </mxCell>
        <mxCell id="xO5s7-Jt3tzT8x8iTR57-62" value="" style="ellipse;whiteSpace=wrap;html=1;" vertex="1" parent="1">
          <mxGeometry y="200" width="70" height="60" as="geometry" />
        </mxCell>
        <mxCell id="xO5s7-Jt3tzT8x8iTR57-63" value="" style="ellipse;whiteSpace=wrap;html=1;" vertex="1" parent="1">
          <mxGeometry x="225" y="310" width="70" height="60" as="geometry" />
        </mxCell>
        <mxCell id="xO5s7-Jt3tzT8x8iTR57-64" value="" style="ellipse;whiteSpace=wrap;html=1;" vertex="1" parent="1">
          <mxGeometry x="300" y="320" width="70" height="60" as="geometry" />
        </mxCell>
        <mxCell id="xO5s7-Jt3tzT8x8iTR57-65" value="" style="ellipse;whiteSpace=wrap;html=1;" vertex="1" parent="1">
          <mxGeometry x="140" y="220" width="70" height="60" as="geometry" />
        </mxCell>
        <mxCell id="xO5s7-Jt3tzT8x8iTR57-66" value="" style="ellipse;whiteSpace=wrap;html=1;" vertex="1" parent="1">
          <mxGeometry x="225" y="240" width="70" height="60" as="geometry" />
        </mxCell>
        <mxCell id="xO5s7-Jt3tzT8x8iTR57-68" style="edgeStyle=orthogonalEdgeStyle;rounded=0;orthogonalLoop=1;jettySize=auto;html=1;exitX=0;exitY=0;exitDx=0;exitDy=0;entryX=0.75;entryY=1;entryDx=0;entryDy=0;" edge="1" parent="1" source="xO5s7-Jt3tzT8x8iTR57-67" target="xO5s7-Jt3tzT8x8iTR57-7">
          <mxGeometry relative="1" as="geometry" />
        </mxCell>
        <mxCell id="xO5s7-Jt3tzT8x8iTR57-67" value="" style="ellipse;whiteSpace=wrap;html=1;" vertex="1" parent="1">
          <mxGeometry x="310" y="240" width="70" height="60" as="geometry" />
        </mxCell>
        <mxCell id="xO5s7-Jt3tzT8x8iTR57-69" style="edgeStyle=orthogonalEdgeStyle;rounded=0;orthogonalLoop=1;jettySize=auto;html=1;exitX=1;exitY=0;exitDx=0;exitDy=0;entryX=0.583;entryY=1.017;entryDx=0;entryDy=0;entryPerimeter=0;" edge="1" parent="1" source="xO5s7-Jt3tzT8x8iTR57-66" target="xO5s7-Jt3tzT8x8iTR57-7">
          <mxGeometry relative="1" as="geometry" />
        </mxCell>
        <mxCell id="xO5s7-Jt3tzT8x8iTR57-70" style="edgeStyle=orthogonalEdgeStyle;rounded=0;orthogonalLoop=1;jettySize=auto;html=1;exitX=1;exitY=0;exitDx=0;exitDy=0;entryX=0.017;entryY=0.867;entryDx=0;entryDy=0;entryPerimeter=0;" edge="1" parent="1" source="xO5s7-Jt3tzT8x8iTR57-65" target="xO5s7-Jt3tzT8x8iTR57-7">
          <mxGeometry relative="1" as="geometry" />
        </mxCell>
      </root>
    </mxGraphModel>
  </diagram>
</mxfile>
